<svg width="53" height="43" viewBox="0 0 53 43" fill="none" xmlns="http://www.w3.org/2000/svg">
<path d="M8.83337 34.0416V30.4583H13.25V17.9166C13.25 15.4382 14.1702 13.2434 16.0105 11.3323C17.8507 9.3913 20.2431 8.1222 23.1875 7.52498V6.27081C23.1875 5.52428 23.5004 4.8972 24.1261 4.38956C24.7886 3.85206 25.5799 3.58331 26.5 3.58331C27.4202 3.58331 28.1931 3.85206 28.8188 4.38956C29.4813 4.8972 29.8125 5.52428 29.8125 6.27081V7.52498C32.757 8.1222 35.1493 9.3913 36.9896 11.3323C38.8299 13.2434 39.75 15.4382 39.75 17.9166V30.4583H44.1667V34.0416H8.83337ZM26.5 39.4166C25.2855 39.4166 24.2365 39.0732 23.3532 38.3864C22.5066 37.6698 22.0834 36.8187 22.0834 35.8333H30.9167C30.9167 36.8187 30.475 37.6698 29.5917 38.3864C28.7452 39.0732 27.7146 39.4166 26.5 39.4166ZM17.6667 30.4583H35.3334V17.9166C35.3334 15.9458 34.4684 14.2587 32.7386 12.8552C31.0087 11.4517 28.9292 10.75 26.5 10.75C24.0709 10.75 21.9914 11.4517 20.2615 12.8552C18.5316 14.2587 17.6667 15.9458 17.6667 17.9166V30.4583Z" fill="#FFFBFF"/>
</svg>
