<svg width="57" height="57" viewBox="0 0 57 57" fill="none" xmlns="http://www.w3.org/2000/svg">
<path d="M26.7235 55.1546C26.6783 51.8822 25.3467 48.7592 23.0166 46.461C20.6865 44.1629 17.5453 42.8745 14.2726 42.8745C10.9999 42.8745 7.85871 44.1629 5.52862 46.461C3.19853 48.7592 1.86685 51.8822 1.82166 55.1546M44.5075 12.4664V40.926M14.2738 39.4416C16.4752 39.4416 18.5865 38.5671 20.1432 37.0104C21.6999 35.4538 22.5744 33.3425 22.5744 31.141C22.5744 28.9396 21.6999 26.8283 20.1432 25.2716C18.5865 23.7149 16.4752 22.8404 14.2738 22.8404C12.0723 22.8404 9.96102 23.7149 8.40435 25.2716C6.84768 26.8283 5.97316 28.9396 5.97316 31.141C5.97316 33.3425 6.84768 35.4538 8.40435 37.0104C9.96102 38.5671 12.0723 39.4416 14.2738 39.4416ZM51.6207 36.5798V8.90864C51.6379 7.96344 51.4667 7.02427 51.1169 6.14599C50.7671 5.26772 50.2459 4.46795 49.5835 3.7934C48.9212 3.11885 48.1311 2.58305 47.2593 2.21729C46.3876 1.85153 45.4517 1.66315 44.5063 1.66315C43.561 1.66315 42.6251 1.85153 41.7534 2.21729C40.8816 2.58305 40.0915 3.11885 39.4292 3.7934C38.7668 4.46795 38.2456 5.26772 37.8958 6.14599C37.546 7.02427 37.3748 7.96344 37.392 8.90864V36.5798C35.7813 38.0206 34.6461 39.9165 34.1364 42.0166C33.6268 44.1167 33.7668 46.3221 34.538 48.3409C35.3092 50.3597 36.6751 52.0967 38.4551 53.3222C40.2351 54.5477 42.3453 55.2039 44.5063 55.2039C46.6674 55.2039 48.7776 54.5477 50.5576 53.3222C52.3376 52.0967 53.7035 50.3597 54.4747 48.3409C55.2459 46.3221 55.3859 44.1167 54.8763 42.0166C54.3666 39.9165 53.2314 38.0206 51.6207 36.5798Z" stroke="#9A2B22" stroke-width="1.5" stroke-linecap="round" stroke-linejoin="round"/>
<path d="M4.7833 18.3944C4.23789 17.8496 3.80522 17.2026 3.51002 16.4905C3.21481 15.7783 3.06287 15.015 3.06287 14.2441C3.06287 13.4732 3.21481 12.7098 3.51002 11.9977C3.80522 11.2856 4.23789 10.6386 4.7833 10.0938C5.3287 9.54896 5.76138 8.90199 6.05658 8.18985C6.35179 7.47771 6.50373 6.71437 6.50373 5.94346C6.50373 5.17256 6.35179 4.40922 6.05658 3.69708C5.76138 2.98494 5.3287 2.33797 4.7833 1.79315M13.6207 18.3944C13.0753 17.8496 12.6426 17.2026 12.3474 16.4905C12.0522 15.7783 11.9002 15.015 11.9002 14.2441C11.9002 13.4732 12.0522 12.7098 12.3474 11.9977C12.6426 11.2856 13.0753 10.6386 13.6207 10.0938C14.1661 9.54896 14.5988 8.90199 14.894 8.18985C15.1892 7.47771 15.3411 6.71437 15.3411 5.94346C15.3411 5.17256 15.1892 4.40922 14.894 3.69708C14.5988 2.98494 14.1661 2.33797 13.6207 1.79315M23.1088 18.3944C22.5634 17.8496 22.1307 17.2026 21.8355 16.4905C21.5403 15.7783 21.3884 15.015 21.3884 14.2441C21.3884 13.4732 21.5403 12.7098 21.8355 11.9977C22.1307 11.2856 22.5634 10.6386 23.1088 10.0938C24.2086 8.99253 24.8263 7.49981 24.8263 5.94346C24.8263 4.38712 24.2086 2.8944 23.1088 1.79315M44.5076 48.0392C44.9823 48.0514 45.4548 47.9685 45.897 47.7953C46.3392 47.6221 46.7423 47.3621 47.0825 47.0306C47.4226 46.6991 47.693 46.3029 47.8775 45.8653C48.0621 45.4277 48.1572 44.9575 48.1572 44.4826C48.1572 44.0076 48.0621 43.5375 47.8775 43.0999C47.693 42.6623 47.4226 42.2661 47.0825 41.9346C46.7423 41.6031 46.3392 41.3431 45.897 41.1699C45.4548 40.9967 44.9823 40.9138 44.5076 40.926C43.5802 40.95 42.6989 41.3352 42.0515 41.9996C41.404 42.664 41.0417 43.5549 41.0417 44.4826C41.0417 45.4102 41.404 46.3012 42.0515 46.9656C42.6989 47.63 43.5802 48.0152 44.5076 48.0392Z" stroke="#9A2B22" stroke-width="1.5" stroke-linecap="round" stroke-linejoin="round"/>
</svg>
